<mxfile host="app.diagrams.net" modified="2023-10-30T14:52:05.415Z" agent="Mozilla/5.0 (Windows NT 10.0; Win64; x64) AppleWebKit/537.36 (KHTML, like Gecko) Chrome/118.0.0.0 Safari/537.36" etag="5MoQqaKcGzDCAgcVCghS" version="21.7.5" type="device">
  <diagram id="prtHgNgQTEPvFCAcTncT" name="Page-1">
    <mxGraphModel dx="1434" dy="758" grid="1" gridSize="10" guides="1" tooltips="1" connect="1" arrows="1" fold="1" page="1" pageScale="1" pageWidth="1100" pageHeight="850" math="0" shadow="0">
      <root>
        <mxCell id="0" />
        <mxCell id="1" parent="0" />
        <mxCell id="RN8kV-zfJ5Odk2crO4pc-61" value="" style="shape=document;whiteSpace=wrap;html=1;boundedLbl=1;fontSize=12;strokeColor=#6c8ebf;strokeWidth=1;fillColor=#dae8fc;rotation=-90;size=0.038461538461538464;" parent="1" vertex="1">
          <mxGeometry x="900" y="150" width="40" height="320" as="geometry" />
        </mxCell>
        <mxCell id="RN8kV-zfJ5Odk2crO4pc-13" value="" style="rounded=1;whiteSpace=wrap;html=1;fillColor=#dae8fc;strokeColor=#6c8ebf;" parent="1" vertex="1">
          <mxGeometry x="270" y="90" width="490" height="40" as="geometry" />
        </mxCell>
        <mxCell id="RN8kV-zfJ5Odk2crO4pc-12" value="" style="rounded=1;whiteSpace=wrap;html=1;fillColor=#d5e8d4;strokeColor=#82b366;" parent="1" vertex="1">
          <mxGeometry x="270" y="90" width="130" height="40" as="geometry" />
        </mxCell>
        <mxCell id="RN8kV-zfJ5Odk2crO4pc-2" value="v1.6" style="rounded=1;whiteSpace=wrap;html=1;fillColor=#FFCE9F;strokeColor=#d79b00;dashed=1;gradientColor=#FCFCFC;gradientDirection=west;fontSize=16;" parent="1" vertex="1">
          <mxGeometry x="160" y="90" width="120" height="40" as="geometry" />
        </mxCell>
        <mxCell id="RN8kV-zfJ5Odk2crO4pc-16" value="" style="rounded=1;whiteSpace=wrap;html=1;fillColor=#d5e8d4;strokeColor=#82b366;align=right;" parent="1" vertex="1">
          <mxGeometry x="150" y="40" width="130" height="40" as="geometry" />
        </mxCell>
        <mxCell id="RN8kV-zfJ5Odk2crO4pc-17" value="v1.5" style="rounded=1;whiteSpace=wrap;html=1;fillColor=#FFCE9F;strokeColor=#d79b00;gradientColor=#FCFCFC;gradientDirection=west;dashed=1;fontSize=16;" parent="1" vertex="1">
          <mxGeometry x="40" y="40" width="120" height="40" as="geometry" />
        </mxCell>
        <mxCell id="RN8kV-zfJ5Odk2crO4pc-19" value="" style="rounded=1;whiteSpace=wrap;html=1;fillColor=#d5e8d4;strokeColor=#82b366;" parent="1" vertex="1">
          <mxGeometry x="390" y="140" width="130" height="40" as="geometry" />
        </mxCell>
        <mxCell id="RN8kV-zfJ5Odk2crO4pc-21" value="" style="rounded=1;whiteSpace=wrap;html=1;fillColor=#d5e8d4;strokeColor=#82b366;" parent="1" vertex="1">
          <mxGeometry x="450" y="190" width="190" height="40" as="geometry" />
        </mxCell>
        <mxCell id="RN8kV-zfJ5Odk2crO4pc-22" value="v2.1" style="rounded=1;whiteSpace=wrap;html=1;fillColor=#FFCE9F;strokeColor=#d79b00;gradientColor=#FCFCFC;gradientDirection=west;dashed=1;fontSize=16;" parent="1" vertex="1">
          <mxGeometry x="400" y="190" width="120" height="40" as="geometry" />
        </mxCell>
        <mxCell id="RN8kV-zfJ5Odk2crO4pc-23" value="" style="rounded=1;whiteSpace=wrap;html=1;fillColor=#d5e8d4;strokeColor=#82b366;" parent="1" vertex="1">
          <mxGeometry x="630" y="240" width="130" height="40" as="geometry" />
        </mxCell>
        <mxCell id="RN8kV-zfJ5Odk2crO4pc-24" value="v2.2" style="rounded=1;whiteSpace=wrap;html=1;fillColor=#FFCE9F;strokeColor=#d79b00;gradientColor=#FCFCFC;gradientDirection=west;dashed=1;fontSize=16;" parent="1" vertex="1">
          <mxGeometry x="520" y="240" width="120" height="40" as="geometry" />
        </mxCell>
        <mxCell id="RN8kV-zfJ5Odk2crO4pc-25" value="" style="rounded=1;whiteSpace=wrap;html=1;fillColor=#d5e8d4;strokeColor=#82b366;" parent="1" vertex="1">
          <mxGeometry x="750" y="290" width="130" height="40" as="geometry" />
        </mxCell>
        <mxCell id="RN8kV-zfJ5Odk2crO4pc-26" value="v2.3" style="rounded=1;whiteSpace=wrap;html=1;fillColor=#FFCE9F;strokeColor=#d79b00;gradientColor=#FCFCFC;gradientDirection=west;dashed=1;fontSize=16;" parent="1" vertex="1">
          <mxGeometry x="640" y="290" width="120" height="40" as="geometry" />
        </mxCell>
        <mxCell id="RN8kV-zfJ5Odk2crO4pc-59" value="" style="curved=1;endArrow=classic;html=1;rounded=0;fontSize=11;entryX=1;entryY=0.5;entryDx=0;entryDy=0;strokeColor=#EA6B66;strokeWidth=2;" parent="1" source="RN8kV-zfJ5Odk2crO4pc-60" target="RN8kV-zfJ5Odk2crO4pc-17" edge="1">
          <mxGeometry width="50" height="50" relative="1" as="geometry">
            <mxPoint x="70" y="190" as="sourcePoint" />
            <mxPoint x="172.99791333105884" y="81.41814745793772" as="targetPoint" />
            <Array as="points">
              <mxPoint x="30" y="150" />
              <mxPoint x="60" y="110" />
              <mxPoint x="150" y="100" />
            </Array>
          </mxGeometry>
        </mxCell>
        <mxCell id="RN8kV-zfJ5Odk2crO4pc-62" value="" style="rounded=1;whiteSpace=wrap;html=1;fillColor=#d5e8d4;strokeColor=#82b366;" parent="1" vertex="1">
          <mxGeometry x="870" y="340" width="130" height="40" as="geometry" />
        </mxCell>
        <mxCell id="RN8kV-zfJ5Odk2crO4pc-63" value="v3.0" style="rounded=1;whiteSpace=wrap;html=1;fillColor=#FFCE9F;strokeColor=#d79b00;gradientColor=#FCFCFC;gradientDirection=west;dashed=1;fontSize=16;" parent="1" vertex="1">
          <mxGeometry x="760" y="340" width="120" height="40" as="geometry" />
        </mxCell>
        <mxCell id="RN8kV-zfJ5Odk2crO4pc-3" value="" style="rounded=1;whiteSpace=wrap;html=1;fillColor=#ffe6cc;strokeColor=#d79b00;gradientColor=#FCFCFC;gradientDirection=west;dashed=1;" parent="1" vertex="1">
          <mxGeometry x="40" y="281" width="20" height="20" as="geometry" />
        </mxCell>
        <mxCell id="RN8kV-zfJ5Odk2crO4pc-4" value="Active Development / Pre Release (major/minor version)" style="text;html=1;strokeColor=none;fillColor=none;align=left;verticalAlign=middle;whiteSpace=wrap;rounded=0;fontSize=16;" parent="1" vertex="1">
          <mxGeometry x="70" y="276" width="450" height="30" as="geometry" />
        </mxCell>
        <mxCell id="RN8kV-zfJ5Odk2crO4pc-8" value="" style="rounded=1;whiteSpace=wrap;html=1;fillColor=#d5e8d4;strokeColor=#82b366;" parent="1" vertex="1">
          <mxGeometry x="40" y="320" width="20" height="20" as="geometry" />
        </mxCell>
        <mxCell id="RN8kV-zfJ5Odk2crO4pc-9" value="Active Maintenance / Released (regular patch releases)" style="text;html=1;strokeColor=none;fillColor=none;align=left;verticalAlign=middle;whiteSpace=wrap;rounded=0;fontSize=16;" parent="1" vertex="1">
          <mxGeometry x="70" y="315" width="450" height="30" as="geometry" />
        </mxCell>
        <mxCell id="RN8kV-zfJ5Odk2crO4pc-10" value="" style="rounded=1;whiteSpace=wrap;html=1;fillColor=#dae8fc;strokeColor=#6c8ebf;" parent="1" vertex="1">
          <mxGeometry x="40" y="360" width="20" height="20" as="geometry" />
        </mxCell>
        <mxCell id="RN8kV-zfJ5Odk2crO4pc-11" value="Limited Maintenance / LTM (as-needed patch releases)" style="text;html=1;strokeColor=none;fillColor=none;align=left;verticalAlign=middle;whiteSpace=wrap;rounded=0;fontSize=16;" parent="1" vertex="1">
          <mxGeometry x="70" y="355" width="450" height="30" as="geometry" />
        </mxCell>
        <mxCell id="RN8kV-zfJ5Odk2crO4pc-20" value="v2.0" style="rounded=1;whiteSpace=wrap;html=1;fillColor=#FFCE9F;strokeColor=#d79b00;gradientColor=#FCFCFC;gradientDirection=west;dashed=1;fontSize=16;" parent="1" vertex="1">
          <mxGeometry x="280" y="140" width="120" height="40" as="geometry" />
        </mxCell>
        <mxCell id="RN8kV-zfJ5Odk2crO4pc-60" value="Release of v1.5.0" style="text;html=1;strokeColor=none;fillColor=none;align=center;verticalAlign=middle;whiteSpace=wrap;rounded=0;dashed=1;fontSize=16;fontStyle=3" parent="1" vertex="1">
          <mxGeometry x="30" y="175" width="70" height="30" as="geometry" />
        </mxCell>
      </root>
    </mxGraphModel>
  </diagram>
</mxfile>
